<?xml version="1.0" standalone="no"?>
<!DOCTYPE svg PUBLIC "-//W3C//DTD SVG 20010904//EN"
 "http://www.w3.org/TR/2001/REC-SVG-20010904/DTD/svg10.dtd">
<svg version="1.0" xmlns="http://www.w3.org/2000/svg"
 width="512.000000pt" height="512.000000pt" viewBox="0 0 512.000000 512.000000"
 preserveAspectRatio="xMidYMid meet">
<metadata>
Created by potrace 1.14, written by Peter Selinger 2001-2017
</metadata>
<g transform="translate(0.000000,512.000000) scale(0.100000,-0.100000)"
fill="#000000" stroke="none">
<path d="M203 5099 c-68 -26 -164 -127 -187 -196 -15 -44 -16 -256 -14 -2358
l3 -2310 25 -50 c35 -73 105 -138 173 -164 l58 -21 2303 0 c2572 0 2348 -7
2414 71 19 22 39 39 46 39 21 0 56 45 76 99 20 50 20 92 20 2351 l0 2299 -21
58 c-26 68 -91 138 -164 173 l-50 25 -2315 2 c-2291 2 -2316 2 -2367 -18z"/>
</g>
</svg>
